<svg width="169" height="129" viewBox="0 0 169 129" fill="none" xmlns="http://www.w3.org/2000/svg">
    <path fill-rule="evenodd" clip-rule="evenodd" d="M94.633 41.586a171.12 171.12 0 0 1 18.452.432c7.656.598 15.07 3.588 20.5 6.362a79.692 79.692 0 0 1 6.577 3.766c.792.506 1.417.927 1.846 1.223l.197.137 13.802.802c2.071.126 3.675 1.92 3.635 4.066v.002l-.202 10.1 1.9 2.403v5.69c0 2.23-1.039 4.271-2.688 5.61l-.003.001c-4.634 3.745-9.823 6.067-14.851 7.485-1.052.296-2.138-.342-2.425-1.426-.288-1.084.331-2.204 1.383-2.5 4.645-1.31 9.326-3.424 13.456-6.76.757-.617 1.179-1.506 1.179-2.41v-4.24l-1.929-2.441.23-11.521-14.834-.863-.465-.342-.005-.004-.025-.018-.109-.078a58.553 58.553 0 0 0-2.172-1.457 75.7 75.7 0 0 0-6.251-3.578c-5.224-2.67-12.113-5.409-19.044-5.95a167.281 167.281 0 0 0-18.034-.423c-2.254.07-4.054.176-5.286.264a82.213 82.213 0 0 0-1.765.143l-.088.009-.02.002h-.004l-.053.006-.046.002h-.003l-.01.001a11.874 11.874 0 0 0-.483.047c-.366.043-.933.122-1.69.265-1.517.287-3.801.83-6.784 1.85-5.965 2.04-14.736 5.997-25.757 13.651a1.938 1.938 0 0 1-2.74-.55c-.61-.932-.37-2.197.534-2.825 11.306-7.853 20.4-11.977 26.719-14.139 3.159-1.08 5.62-1.67 7.315-1.99a28.54 28.54 0 0 1 1.957-.306 15.493 15.493 0 0 1 .678-.065h.01l.098-.01.387-.036c.339-.03.835-.07 1.474-.116 1.278-.09 3.128-.199 5.437-.271zM120.872 89.1c.014 1.124-.859 2.047-1.949 2.062l-68.934.915c-1.09.015-1.986-.885-2-2.008-.014-1.124.859-2.047 1.95-2.062l68.933-.916c1.09-.014 1.986.885 2 2.01z" fill="#000"/>
    <path fill-rule="evenodd" clip-rule="evenodd" d="M126.029 52.94a1.935 1.935 0 0 1 2.768.256 2.08 2.08 0 0 1-.237 2.868l-1.182-1.445c1.182 1.445 1.18 1.447 1.18 1.447l-.003.002-.005.005-.014.011-.034.029-.101.082a8.75 8.75 0 0 1-.34.252c-.289.206-.705.48-1.264.799-1.119.638-2.805 1.455-5.181 2.259-4.754 1.608-12.255 3.164-23.486 3.164H50.588l-.138.008-.551.032a351.7 351.7 0 0 0-8.944.658c-5.48.475-12.106 1.19-16.908 2.155-7.258 1.455-11.372 5.31-12.726 6.775l.835 12.492v.002c.051.736.316 1.411.721 1.894.186.206.342.348.464.435.042.03.071.047.088.056.743.103 4.094.383 7.397.646a1738.23 1738.23 0 0 0 5.848.455l.535.04-.145 2.03-.144 2.03h-.002l-.535-.04a2508.908 2508.908 0 0 1-5.861-.456c-3.229-.257-6.79-.552-7.66-.677-1.38-.186-2.388-1.203-2.9-1.773l-.017-.019-.016-.019c-1.047-1.225-1.606-2.78-1.712-4.314v-.005l-.868-12.989a2.855 2.855 0 0 1 .66-2.086l.004-.004c1.17-1.372 6.07-6.622 15.28-8.469 5.027-1.01 11.835-1.739 17.33-2.215a355.603 355.603 0 0 1 9.611-.698l.147-.008.051-.003.104 2.032-.104-2.032.053-.003H98.13c10.879 0 17.956-1.507 22.254-2.961 2.149-.728 3.606-1.443 4.5-1.953.447-.255.754-.46.937-.59.092-.064.152-.11.184-.136l.023-.018-.006.005-.003.003M27.064 90.348l-.144 2.03c1.088.081 2.034-.76 2.114-1.882.08-1.12-.738-2.096-1.825-2.178l-.145 2.03zM126.03 52.94a1.198 1.198 0 0 0-.012.01z" fill="#000"/>
    <path d="M38.317 75.084c5.448 0 9.87 4.559 9.87 10.176s-4.422 10.175-9.87 10.175c-5.449 0-9.87-4.558-9.87-10.175 0-5.617 4.421-10.176 9.87-10.176zm0-4.07c-7.64 0-13.819 6.37-13.819 14.246s6.179 14.246 13.819 14.246c7.64 0 13.818-6.37 13.818-14.246s-6.179-14.247-13.818-14.247z" fill="#000"/>
    <path fill-rule="evenodd" clip-rule="evenodd" d="M93.985 60.37V44.353h2.961V60.37h-2.961zM23.982 68.52c.725.391 1.005 1.313.627 2.06-.768 1.516-1.604 2.557-2.372 3.274l-.008.008c-.987.908-2.203 1.405-3.494 1.405h-7.68c-.818 0-1.48-.683-1.48-1.526s.662-1.527 1.48-1.527h7.68c.524 0 1.045-.193 1.518-.626.496-.464 1.119-1.213 1.73-2.42a1.46 1.46 0 0 1 1.999-.647zM62.972 60.37v-7.55h2.962v7.55h-2.962z" fill="#000"/>
    <path d="M130.84 75.084c5.449 0 9.871 4.559 9.871 10.176s-4.422 10.175-9.871 10.175c-5.448 0-9.87-4.558-9.87-10.175 0-5.617 4.422-10.176 9.87-10.176zm0-4.07c-7.639 0-13.818 6.37-13.818 14.246s6.179 14.246 13.818 14.246c7.64 0 13.819-6.37 13.819-14.246s-6.179-14.247-13.819-14.247z" fill="#000"/>
    <path fill-rule="evenodd" clip-rule="evenodd" d="M131.5 56.508c8.837 0 16-7.164 16-16 0 8.836 7.163 16 16 16-8.837 0-16 7.163-16 16 0-8.837-7.163-16-16-16z" fill="#fff"/>
    <path d="M149 40.508a1.5 1.5 0 0 0-3 0h3zm-17.5 14.5a1.5 1.5 0 0 0 0 3v-3zm32 3a1.5 1.5 0 0 0 0-3v3zm-17.5 14.5a1.5 1.5 0 0 0 3 0h-3zm0-32c0 8.008-6.492 14.5-14.5 14.5v3c9.665 0 17.5-7.835 17.5-17.5h-3zm17.5 14.5c-8.008 0-14.5-6.492-14.5-14.5h-3c0 9.665 7.835 17.5 17.5 17.5v-3zm0 0c-9.665 0-17.5 7.835-17.5 17.5h3c0-8.008 6.492-14.5 14.5-14.5v-3zm-32 3c8.008 0 14.5 6.492 14.5 14.5h3c0-9.665-7.835-17.5-17.5-17.5v3z" fill="#82B2ED"/>
    <path fill-rule="evenodd" clip-rule="evenodd" d="M57.5 84.508a8 8 0 0 0 8-8 8 8 0 0 0 8 8 8 8 0 0 0-8 8 8 8 0 0 0-8-8z" fill="#fff"/>
    <path d="M67 76.508a1.5 1.5 0 0 0-3 0h3zm-9.5 6.5a1.5 1.5 0 0 0 0 3v-3zm16 3a1.5 1.5 0 0 0 0-3v3zm-9.5 6.5a1.5 1.5 0 0 0 3 0h-3zm0-16a6.5 6.5 0 0 1-6.5 6.5v3a9.5 9.5 0 0 0 9.5-9.5h-3zm9.5 6.5a6.5 6.5 0 0 1-6.5-6.5h-3a9.5 9.5 0 0 0 9.5 9.5v-3zm0 0a9.5 9.5 0 0 0-9.5 9.5h3a6.5 6.5 0 0 1 6.5-6.5v-3zm-16 3a6.5 6.5 0 0 1 6.5 6.5h3a9.5 9.5 0 0 0-9.5-9.5v3z" fill="#82B2ED"/>
    <path fill-rule="evenodd" clip-rule="evenodd" d="M17.5 74.508c0-6.627-5.371-11.999-11.998-12 6.627-.001 11.998-5.373 11.998-12 0 6.626 5.37 11.997 11.995 12-6.625.002-11.995 5.374-11.995 12z" fill="#fff"/>
    <path d="M5.502 62.508v-1.5a1.5 1.5 0 0 0 0 3v-1.5zm10.498 12a1.5 1.5 0 0 0 3 0h-3zm3-24a1.5 1.5 0 1 0-3 0h3zm10.495 12v1.5a1.5 1.5 0 0 0 0-3v1.5zm-23.993 1.5C11.3 64.008 16 68.71 16 74.508h3c0-7.455-6.043-13.499-13.498-13.5v3zM16 50.508c0 5.798-4.7 10.499-10.498 10.5v3C12.957 64.007 19 57.963 19 50.508h-3zm13.496 10.5C23.699 61.005 19 56.305 19 50.508h-3c0 7.454 6.041 13.497 13.495 13.5v-3zM19 74.508c0-5.798 4.699-10.498 10.496-10.5l-.001-3C22.04 61.01 16 67.054 16 74.508h3z" fill="#82B2ED"/>
    <circle cx="40" cy="52.508" r="2" fill="#82B2ED"/>
    <circle cx="113" cy="49.508" r="2" fill="#82B2ED"/>
    <circle cx="165" cy="74.508" r="2" fill="#82B2ED"/>
    <path fill-rule="evenodd" clip-rule="evenodd" d="M102.5 66.508a1 1 0 0 0-1 1v3h-3a1 1 0 1 0 0 2h3v3a1 1 0 0 0 2 0v-3h3a1 1 0 0 0 0-2h-3v-3a1 1 0 0 0-1-1zM60.5 36.508a1 1 0 0 0-1 1v3h-3a1 1 0 1 0 0 2h3v3a1 1 0 1 0 2 0v-3h3a1 1 0 1 0 0-2h-3v-3a1 1 0 0 0-1-1z" fill="#82B2ED"/>
</svg>
