<svg width="129" height="128" viewBox="0 0 129 128" fill="none" xmlns="http://www.w3.org/2000/svg">
<rect x="34" y="34" width="12" height="3" rx="1" transform="rotate(90 34 34)" fill="#0F396B"/>
<rect x="39" y="13" width="6" height="6" rx="3" fill="#0F396B"/>
<rect x="34.5" y="8" width="60" height="112" rx="6" stroke="#0F396B" stroke-width="4"/>
<path d="M77.6331 57.4149L78.5564 54.9578C78.7506 54.4408 79.3272 54.1791 79.8442 54.3734C80.3612 54.5676 80.6228 55.1442 80.4286 55.6612L78.67 60.3417C78.4757 60.8587 77.8991 61.1204 77.3821 60.9261L72.7016 59.1675C72.1846 58.9733 71.923 58.3967 72.1172 57.8797C72.3115 57.3627 72.8881 57.1011 73.4051 57.2953L75.7894 58.1912C73.9191 53.8061 69.5686 50.7324 64.5003 50.7324C59.2326 50.7324 54.7404 54.0526 53.0022 58.7143C52.8449 59.1363 52.4516 59.4329 52.0013 59.4329C51.3332 59.4329 50.8442 58.8011 51.0702 58.1725C53.0489 52.6684 58.3149 48.7324 64.5003 48.7324C70.3979 48.7324 75.4598 52.3108 77.6331 57.4149Z" fill="#1F74DB"/>
<path d="M51.3596 68.5847L50.4364 71.0419C50.2421 71.5589 49.6655 71.8205 49.1486 71.6263C48.6316 71.432 48.3699 70.8554 48.5642 70.3384L50.3228 65.6579C50.517 65.1409 51.0936 64.8793 51.6106 65.0735L56.2911 66.8321C56.8081 67.0264 57.0697 67.6029 56.8755 68.1199C56.6813 68.6369 56.1047 68.8986 55.5877 68.7043L53.2034 67.8085C55.0736 72.1935 59.4241 75.2672 64.4925 75.2672C69.7601 75.2672 74.2523 71.9471 75.9905 67.2853C76.1479 66.8633 76.5411 66.5668 76.9915 66.5668C77.6595 66.5668 78.1485 67.1985 77.9225 67.8272C75.9438 73.3312 70.6778 77.2672 64.4925 77.2672C58.5948 77.2672 53.5329 73.6888 51.3596 68.5847Z" fill="#1F74DB"/>
<rect x="59" y="112" width="9" height="4" rx="2" fill="#0F396B"/>
</svg>
