<svg width="32" height="32" viewBox="0 0 32 32" fill="none" xmlns="http://www.w3.org/2000/svg">
    <path fill-rule="evenodd" clip-rule="evenodd" d="M14.187 11.14a33.876 33.876 0 0 0-3.645.086c-1.348.105-2.707.64-3.756 1.175a15.136 15.136 0 0 0-1.59.94 6.944 6.944 0 0 0-.087.06l-.02.014-.004.003-.179.131-2.803.163.043 2.143-.396.5v.751c0 .083.04.171.117.234.799.644 1.71 1.056 2.622 1.313a.75.75 0 0 1-.406 1.444c-1.062-.299-2.168-.791-3.159-1.59a1.804 1.804 0 0 1-.674-1.4v-1.274l.386-.487-.04-1.942a1.144 1.144 0 0 1 1.068-1.17h.002l2.72-.157a16.658 16.658 0 0 1 1.72-1.012c1.126-.575 2.688-1.207 4.32-1.335a35.389 35.389 0 0 1 3.807-.089 28.746 28.746 0 0 1 1.514.088l.015.002a2.278 2.278 0 0 1 .153.014c.101.012.243.032.425.066.362.069.882.193 1.543.419 1.323.452 3.21 1.307 5.544 2.925a.75.75 0 1 1-.854 1.233c-2.226-1.543-3.989-2.334-5.175-2.739a9.804 9.804 0 0 0-1.336-.364 4.68 4.68 0 0 0-.39-.057h-.01l-.017-.002-.02-.002h-.005l-.016-.002-.07-.006a27.122 27.122 0 0 0-1.347-.075zM23.25 19.875a.75.75 0 0 1-.75.75L9.17 20.618a.75.75 0 0 1 0-1.5l13.33.007a.75.75 0 0 1 .749.75z" fill="#0F396B"/>
    <path fill-rule="evenodd" clip-rule="evenodd" d="M13.25 14.375v-4h1.5v4h-1.5zM6.923 20.875a1.423 1.423 0 1 0 0-2.846 1.423 1.423 0 0 0 0 2.846zm0 1.5a2.923 2.923 0 1 0 0-5.846 2.923 2.923 0 0 0 0 5.846zM25 20.875a1.5 1.5 0 1 0 0-3 1.5 1.5 0 0 0 0 3zm0 1.5a3 3 0 1 0 0-6 3 3 0 0 0 0 6z" fill="#0F396B"/>
    <path fill-rule="evenodd" clip-rule="evenodd" d="M8.475 12.294a.75.75 0 0 0-.964 1.15L8 12.875c-.489.569-.488.57-.488.57h.001l.002.002.005.004.01.009a1.378 1.378 0 0 0 .107.079c.064.044.153.1.268.163.23.126.568.28 1.04.428.942.297 2.417.575 4.646.575h9.324l.107.007a58.074 58.074 0 0 1 1.743.13c1.072.095 2.352.236 3.271.423 1.173.24 1.89.828 2.199 1.137l-.154 2.343a.364.364 0 0 1-.052.17c-.24.024-.772.07-1.316.114l-.867.068-.382.03a.75.75 0 0 0 .114 1.496l.386-.03.87-.07c.619-.05 1.33-.109 1.522-.136.42-.058.695-.36.795-.474l.006-.006.006-.008c.259-.307.39-.687.414-1.052v-.001l.17-2.587a.906.906 0 0 0-.207-.652l-.001-.001c-.256-.305-1.283-1.419-3.203-1.81-1.008-.206-2.361-.353-3.44-.448a69.29 69.29 0 0 0-1.784-.133l-.111-.007-.03-.001-.072-.002s.213.21.02.75l-.02-.75H13.59c-2.105 0-3.425-.263-4.194-.505a4.372 4.372 0 0 1-.773-.315 1.54 1.54 0 0 1-.148-.09z" fill="#0F396B"/>
</svg>
