<svg width="16" height="16" viewBox="0 0 16 16" fill="none" xmlns="http://www.w3.org/2000/svg">
    <path d="M1.692 3.637a.25.25 0 0 1 .222-.137H3.25a.25.25 0 0 1 .25.25v8.5a.25.25 0 0 1-.25.25H1.914a.25.25 0 0 1-.222-.137L.527 10.076A.25.25 0 0 1 .5 9.963V6.037c0-.04.01-.078.027-.113l1.165-2.287zM14.309 12.363a.25.25 0 0 1-.223.137H12.75a.25.25 0 0 1-.25-.25v-8.5a.25.25 0 0 1 .25-.25h1.336a.25.25 0 0 1 .223.137l1.164 2.287a.25.25 0 0 1 .027.113v3.926a.25.25 0 0 1-.027.113l-1.165 2.287zM3.5 4.25h9v7.5h-9z" stroke="#19827F"/>
</svg>
