<svg width="32" height="32" viewBox="0 0 32 32" fill="none" xmlns="http://www.w3.org/2000/svg">
    <g clip-path="url(#if7jpl6eya)">
        <path fill-rule="evenodd" clip-rule="evenodd" d="M1.58 22.162c3.13.818 8.373 1.81 14.17 1.837h.002L16 24c5.896 0 11.246-1.009 14.42-1.838 1.211-.316 1.829-1.35 1.486-2.334L28.3 9.488C27.993 8.609 26.993 8 25.855 8H6.145C5.008 8 4.008 8.609 3.7 9.489L.094 19.828c-.343.984.275 2.018 1.485 2.334zM6.145 9.5c-.683 0-.987.36-1.03.483L1.51 20.322c-.016.048-.014.08.017.13.036.058.153.186.431.259 1.342.35 3.09.735 5.109 1.057l8.69-3.07a.75.75 0 0 1 .5 1.414l-5.91 2.088c1.629.169 3.363.28 5.153.297l8.472-2.993a.75.75 0 1 1 .5 1.414l-3.922 1.386c3.88-.328 7.25-1.008 9.492-1.593.278-.073.394-.2.431-.26.031-.05.033-.081.017-.129l-3.607-10.34c-.042-.122-.346-.482-1.028-.482H16.75v1h2.5a.75.75 0 0 1 0 1.5h-6.5a.75.75 0 0 1 0-1.5h2.5v-1H6.146z" fill="#0F396B"/>
    </g>
    <defs>
        <clipPath id="if7jpl6eya">
            <path fill="#fff" d="M0 0h32v32H0z"/>
        </clipPath>
    </defs>
</svg>
