<svg width="32" height="32" viewBox="0 0 32 32" fill="none" xmlns="http://www.w3.org/2000/svg">
    <circle cx="16" cy="16" r="14.25" stroke="#fff" stroke-width="1.5"/>
    <path d="M17.102 19.87h-2.716c.008-.693.065-1.287.17-1.782.115-.495.3-.94.558-1.337a6.768 6.768 0 0 1 1.045-1.234c.349-.327.66-.635.932-.925.28-.297.5-.605.659-.925.16-.328.239-.697.239-1.108 0-.465-.076-.854-.228-1.166a1.51 1.51 0 0 0-.647-.708c-.28-.168-.633-.252-1.057-.252-.349 0-.678.073-.989.217-.31.145-.56.37-.75.675-.19.297-.291.685-.307 1.165H11c.023-.998.258-1.828.704-2.49a4.058 4.058 0 0 1 1.807-1.497C14.27 8.168 15.117 8 16.057 8c1.038 0 1.924.175 2.659.526.742.342 1.307.845 1.693 1.508.394.662.591 1.462.591 2.399 0 .67-.129 1.272-.386 1.805a6.123 6.123 0 0 1-1.023 1.474 29.47 29.47 0 0 1-1.375 1.382c-.432.389-.724.804-.875 1.245-.152.442-.231.952-.239 1.531zm-3 3.553c0-.457.152-.837.455-1.142.31-.305.727-.457 1.25-.457.522 0 .935.152 1.239.457.31.305.465.685.465 1.142 0 .442-.155.815-.465 1.12-.304.305-.716.457-1.24.457-.522 0-.939-.152-1.25-.457a1.527 1.527 0 0 1-.454-1.12z" fill="#fff"/>
</svg>
