<svg width="32" height="32" viewBox="0 0 32 32" fill="none" xmlns="http://www.w3.org/2000/svg">
    <path stroke="#1F74DB" stroke-width="1.5" d="M1.75 11.75h28.5v15.5H1.75z"/>
    <mask id="bklwnsygma" fill="#fff">
        <rect x="4" y="15" width="15" height="13" rx=".763"/>
    </mask>
    <rect x="4" y="15" width="15" height="13" rx=".763" stroke="#1F74DB" stroke-width="3" mask="url(#bklwnsygma)"/>
    <path stroke="#1F74DB" stroke-width="1.5" d="M21.75 19.75h4.5v7.5h-4.5z"/>
    <path fill="#1F74DB" d="M4 18h15v1H4zM4 21h15v1H4zM4 24h15v1H4zM21.876 8.8H20.09c-.068 0-.123-.059-.123-.13V7.33c0-.071.055-.13.123-.13h1.786c.093 0 .154-.107.108-.193C21.658 6.406 21.047 6 20.344 6c-.746 0-1.39.459-1.697 1.126a.121.121 0 0 1-.11.074h-5.074a.124.124 0 0 1-.11-.074C13.046 6.46 12.4 6 11.655 6c-.702 0-1.313.406-1.64 1.007-.046.086.016.193.109.193h1.786c.068 0 .123.059.123.13v1.34c0 .071-.055.13-.123.13h-1.786c-.093 0-.155.107-.108.193.326.601.937 1.007 1.64 1.007.746 0 1.39-.459 1.697-1.126a.121.121 0 0 1 .11-.074h5.074c.047 0 .09.03.11.074.307.666.952 1.126 1.698 1.126.702 0 1.313-.406 1.64-1.007.046-.086-.016-.193-.109-.193z"/>
    <path fill-rule="evenodd" clip-rule="evenodd" d="M7.526 4.5h16.948l.01.001a.03.03 0 0 1 .008.007.027.027 0 0 1 .006.009c.001 0 .002.003.002.01v6.894H26V4.526C26 3.683 25.317 3 24.474 3H7.526C6.683 3 6 3.683 6 4.526v6.895h1.5V4.526l.001-.01a.03.03 0 0 1 .007-.008.03.03 0 0 1 .009-.007l.01-.001z" fill="#1F74DB"/>
</svg>
