<svg width="24" height="24" viewBox="0 0 24 24" fill="none" xmlns="http://www.w3.org/2000/svg">
    <path d="m21.85 7.811.692-1.843a.75.75 0 1 1 1.404.528l-1.319 3.51a.75.75 0 0 1-.965.439l-3.51-1.32a.75.75 0 0 1 .527-1.404l1.788.672a9.204 9.204 0 0 0-17.09.392.811.811 0 0 1-.751.54c-.501 0-.868-.474-.698-.946C3.412 4.251 7.36 1.3 12 1.3c4.424 0 8.22 2.684 9.85 6.512zM2.145 16.189l-.693 1.842a.75.75 0 1 1-1.404-.527l1.32-3.51a.75.75 0 0 1 .965-.439l3.51 1.32a.75.75 0 0 1-.527 1.403l-1.788-.672a9.204 9.204 0 0 0 17.09-.392.811.811 0 0 1 .75-.539c.502 0 .868.474.699.945-1.484 4.128-5.434 7.08-10.073 7.08-4.423 0-8.22-2.683-9.85-6.511z" fill="#0F396B"/>
</svg>
